<?xml version="1.0" standalone="no"?>
<!DOCTYPE svg PUBLIC "-//W3C//DTD SVG 1.1//EN" "http://www.w3.org/Graphics/SVG/1.1/DTD/svg11.dtd" >
<svg xmlns="http://www.w3.org/2000/svg" xmlns:xlink="http://www.w3.org/1999/xlink" version="1.1">
<metadata>
Created by FontForge 20161116 at Wed Mar 12 20:33:33 2014
 By Jimmy Wärting
Adrien Coquet
</metadata>
<defs>
<font id="FARRAY-Regular" horiz-adv-x="701" >
  <font-face 
    font-family="FARRAY"
    font-weight="400"
    font-stretch="normal"
    units-per-em="1000"
    panose-1="0 0 5 0 0 0 0 0 0 0"
    ascent="800"
    descent="-200"
    x-height="729"
    cap-height="731"
    bbox="0 -435.791 1380 1021"
    underline-thickness="50"
    underline-position="-100"
    unicode-range="U+0020-2212"
  />
<missing-glyph horiz-adv-x="500" 
d="M500 700v-700h-500v700h500zM80 650l170 -255l170 255h-340zM220 350l-170 255v-510zM450 605l-170 -255l170 -255v510zM250 305l-170 -255h340z" />
    <glyph glyph-name=".notdef" horiz-adv-x="500" 
d="M500 700v-700h-500v700h500zM80 650l170 -255l170 255h-340zM220 350l-170 255v-510zM450 605l-170 -255l170 -255v510zM250 305l-170 -255h340z" />
    <glyph glyph-name="A" unicode="A" 
d="M641 203v-117c0 -11 -9 -19 -20 -19h-27l42 -167l1 -5v-2c0 -12 -8 -21 -19 -21h-121c-8 0 -15 6 -18 14l-1 3l-44 178h-171l-44 -179s-1 -1 -1 -2c-2 -8 -10 -14 -18 -14h-121c-10 0 -19 9 -19 21v4c1 0 1 1 1 2l203 811l1 6c3 7 10 12 18 12h131c8 0 15 -5 18 -12l1 -5
l122 -489h66c11 0 20 -8 20 -19zM302 222h93l-46 185z" />
    <glyph glyph-name="Aacute" unicode="&#xc1;" 
d="M524 911l-32 95c-2 7 -8 12 -15 13h-7l-5 -2l-289 -97l-4 -1c-9 -3 -10 -9 -12 -17l1 -7l2 -4l31 -95l1 -2c2 -8 7 -11 15 -12c2 0 4 1 7 1l294 98l2 1c6 2 11 9 13 17v8zM641 203v-117c0 -11 -9 -19 -20 -19h-27l42 -167l1 -5v-2c0 -12 -8 -21 -19 -21h-121
c-8 0 -15 6 -18 14l-1 3l-44 178h-171l-44 -179s-1 -1 -1 -2c-2 -8 -10 -14 -18 -14h-121c-10 0 -19 9 -19 21v4c1 0 1 1 1 2l203 811l1 6c3 7 10 12 18 12h131c8 0 15 -5 18 -12l1 -5l122 -489h66c11 0 20 -8 20 -19zM302 222h93l-46 185z" />
    <glyph glyph-name="Acircumflex" unicode="&#xc2;" 
d="M590 889c0 7 -3 14 -9 17l-3 2l-193 105l-2 1c-3 1 -5 2 -8 2l-63 -1h-5c-1 0 -3 0 -5 -1l-2 -1l-1 -1l-191 -105c-6 -4 -10 -10 -10 -18c0 -4 0 -7 2 -10l55 -100l2 -3c3 -5 9 -9 16 -9c3 0 6 1 8 2c1 0 1 0 1 1l161 88l163 -89s1 0 2 -1c2 -1 5 -1 8 -1c6 0 12 3 15 8
l3 4l52 98l3 4c1 3 1 5 1 8zM641 203v-117c0 -11 -9 -19 -19 -19h-27l41 -167l1 -4c1 0 1 -1 1 -1v-2c0 -12 -9 -21 -20 -21h-120c-9 0 -16 6 -18 14l-1 3l-45 178h-170l-45 -179v-2c-3 -8 -10 -14 -19 -14h-120c-11 0 -20 9 -20 21c0 1 1 2 1 4v2l203 811l2 6
c3 7 10 12 18 12h130c9 0 15 -5 18 -12l2 -5l122 -489h66c10 0 19 -8 19 -19zM303 222h92l-46 185z" />
    <glyph glyph-name="Adieresis" unicode="&#xc4;" 
d="M292 858c0 44 -35 80 -79 80c-42 0 -77 -36 -77 -80c0 -42 35 -77 77 -77c44 0 79 35 79 77zM572 858c0 44 -35 80 -79 80c-42 0 -77 -36 -77 -80c0 -42 35 -77 77 -77c44 0 79 35 79 77zM641 203v-117c0 -11 -9 -19 -20 -19h-27l42 -167l1 -5v-2c0 -12 -8 -21 -19 -21
h-121c-8 0 -15 6 -18 14l-1 3l-44 178h-171l-44 -179s-1 -1 -1 -2c-2 -8 -10 -14 -18 -14h-121c-10 0 -19 9 -19 21v4c1 0 1 1 1 2l203 811l1 6c3 7 10 12 18 12h131c8 0 15 -5 18 -12l1 -5l122 -489h66c11 0 20 -8 20 -19zM302 222h93l-46 185z" />
    <glyph glyph-name="Agrave" unicode="&#xc0;" 
d="M167 907v-8c2 -8 7 -15 13 -17l2 -1l294 -98c3 0 5 -1 7 -1c8 1 13 4 15 12l1 2l31 95l2 4l1 7c-2 8 -3 14 -12 17l-4 1l-289 97l-5 2h-7c-7 -1 -13 -6 -15 -13l-32 -95zM641 203v-117c0 -11 -9 -19 -19 -19h-27l41 -167l1 -4c1 0 1 -1 1 -1v-2c0 -12 -9 -21 -20 -21
h-120c-9 0 -16 6 -18 14l-1 3l-45 178h-170l-45 -179v-2c-3 -8 -10 -14 -19 -14h-120c-11 0 -20 9 -20 21c0 1 1 2 1 4v2l203 811l2 6c3 7 10 12 18 12h130c9 0 15 -5 18 -12l2 -5l122 -489h66c10 0 19 -8 19 -19zM303 222h92l-46 185z" />
    <glyph glyph-name="AE" unicode="&#xc6;" horiz-adv-x="1427" 
d="M1357 -110v117c0 11 -9 20 -19 20h-411v195h371c11 0 20 9 20 20v117c0 11 -9 19 -20 19h-371v196h391c11 0 20 8 20 19v117c0 11 -9 20 -20 20h-527c-11 0 -20 -9 -20 -20v-820c0 -11 9 -20 20 -20h547c10 0 19 9 19 20zM641 203v-117c0 -11 -9 -19 -20 -19h-27l42 -167
l1 -5v-2c0 -12 -8 -21 -19 -21h-121c-8 0 -15 6 -18 14l-1 3l-44 178h-171l-44 -179s-1 -1 -1 -2c-2 -8 -10 -14 -18 -14h-121c-10 0 -19 9 -19 21v4c1 0 1 1 1 2l203 811l1 6c3 7 10 12 18 12h131c8 0 15 -5 18 -12l1 -5l122 -489h66c11 0 20 -8 20 -19zM302 222h93
l-46 185z" />
    <glyph glyph-name="B" unicode="B" horiz-adv-x="765" 
d="M614 300c52 -46 81 -109 81 -176c0 -126 -107 -254 -312 -254h-293c-11 0 -20 10 -20 21v487h167l-167 250v81c0 12 9 21 20 21h293c91 0 169 -25 226 -73c55 -47 86 -113 86 -181c0 -64 -27 -128 -81 -176zM294 574l129 -193c79 11 116 54 116 95c0 47 -49 98 -156 98
h-89zM226 27h157c107 0 156 50 156 97s-49 98 -156 98h-157v-195z" />
    <glyph glyph-name="C" unicode="C" horiz-adv-x="812" 
d="M668 -92c-171 -76 -379 -35 -506 115c-154 181 -132 454 50 608c153 130 372 134 529 22l3 -2l2 -2c8 -9 7 -22 -1 -29l-94 -79c-6 -5 -14 -6 -22 -2c-97 57 -225 49 -316 -28c-115 -98 -129 -271 -31 -387c91 -107 248 -127 362 -50c0 0 1 0 1 1c8 5 20 3 26 -5l75 -89
c8 -8 7 -21 -1 -28c-1 0 -1 0 -1 -1h-1v-1c-24 -17 -49 -31 -75 -43z" />
    <glyph glyph-name="Ccedilla" unicode="&#xc7;" horiz-adv-x="812" 
d="M668 69l75 -87c7 -9 6 -22 -2 -29c-1 -1 -2 -1 -2 -1c-23 -17 -48 -31 -75 -43c-14 -6 -29 -12 -44 -17c25 -38 38 -85 34 -134c-10 -117 -112 -203 -228 -193c-102 9 -179 88 -192 184c0 1 0 2 -1 3v3c1 11 11 19 22 18l76 -6c8 -1 14 -7 17 -14v-3
c11 -39 45 -69 87 -73c54 -4 102 36 107 90c4 53 -35 102 -88 107c-110 10 -215 61 -292 151c-152 181 -129 452 53 605c152 128 370 131 526 19c1 0 2 -1 3 -2c1 0 2 -1 2 -2c7 -9 7 -21 -2 -28l-93 -78c-6 -6 -14 -6 -22 -2c-96 56 -223 50 -314 -27
c-115 -96 -130 -270 -33 -385c90 -107 246 -128 360 -51l1 1c8 5 19 3 25 -6z" />
    <glyph glyph-name="D" unicode="D" horiz-adv-x="764" 
d="M294 -129h-214c-11 0 -20 10 -20 24v815c0 10 9 19 20 19h214c124 0 248 -54 332 -157c151 -183 124 -454 -58 -604c-80 -66 -177 -98 -274 -97zM506 473c-54 66 -133 100 -212 100h-78v-546h78c62 -1 124 20 174 62c117 95 134 268 38 384z" />
    <glyph glyph-name="E" unicode="E" horiz-adv-x="726" 
d="M656 -110v117c0 11 -9 20 -19 20h-411v195h371c11 0 20 9 20 20v117c0 11 -9 19 -20 19h-371v196h391c11 0 20 8 20 19v117c0 11 -9 20 -20 20h-527c-11 0 -20 -9 -20 -20v-820c0 -11 9 -20 20 -20h547c10 0 19 9 19 20z" />
    <glyph glyph-name="Eacute" unicode="&#xc9;" horiz-adv-x="725" 
d="M524 911l-32 95c-2 7 -8 12 -15 13h-7l-5 -2l-289 -97l-4 -1c-9 -3 -10 -9 -12 -17l1 -7l2 -4l31 -95l1 -2c2 -8 7 -11 15 -12c2 0 4 1 7 1l294 98l2 1c6 2 11 9 13 17v8zM655 -110v117c0 11 -9 20 -20 20h-409v195h370c11 0 20 8 20 19v117c0 11 -9 20 -20 20h-370v195
h390c11 0 19 8 19 19v117c0 11 -8 20 -19 20h-527c-10 0 -19 -9 -19 -20v-819c0 -11 9 -19 19 -19h546c11 0 20 8 20 19z" />
    <glyph glyph-name="Ecircumflex" unicode="&#xca;" horiz-adv-x="727" 
d="M175 795l-55 70c-1 3 -2 6 -2 10c0 8 4 14 10 18l191 105l1 1h2v1c2 1 4 1 5 1h68c3 0 5 0 8 -1l2 -1l193 -105l3 -2c5 -3 9 -10 9 -17c0 -3 0 -5 -1 -8l-3 -4l-53 -68l-2 -4c-3 -5 -9 -8 -16 -8c-2 0 -5 0 -7 1c-1 1 -2 1 -2 1l-163 89l-161 -89c-3 -1 -6 -2 -9 -2
c-7 0 -13 4 -16 9zM227 27h410c11 0 20 -9 20 -20v-117c0 -11 -9 -20 -20 -20h-547c-11 0 -20 9 -20 20v820c0 11 9 20 20 20h528c10 0 19 -9 19 -20v-117c0 -11 -9 -20 -20 -20h-390v-195h371c11 0 20 -8 20 -19v-117c0 -11 -9 -20 -20 -20h-371v-195z" />
    <glyph glyph-name="Edieresis" unicode="&#xcb;" horiz-adv-x="727" 
d="M208 781c-42 0 -77 35 -77 77c0 44 35 80 77 80c44 0 79 -36 79 -80c0 -42 -35 -77 -79 -77zM488 781c-42 0 -77 35 -77 77c0 44 35 80 77 80c44 0 79 -36 79 -80c0 -42 -35 -77 -79 -77zM227 27h410c11 0 20 -9 20 -20v-117c0 -11 -9 -20 -20 -20h-547
c-11 0 -20 9 -20 20v820c0 11 9 20 20 20h528c10 0 19 -9 19 -20v-117c0 -11 -9 -20 -20 -20h-390v-195h371c11 0 20 -8 20 -19v-117c0 -11 -9 -20 -20 -20h-371v-195z" />
    <glyph glyph-name="Egrave" unicode="&#xc8;" horiz-adv-x="727" 
d="M162 907v-8c2 -8 7 -15 13 -17l2 -1l294 -98c3 0 5 -1 7 -1c8 1 13 4 15 12l1 2l31 95l2 4l1 7c-2 8 -3 14 -12 17l-4 1l-289 97l-5 2h-7c-7 -1 -13 -6 -15 -13l-32 -95zM657 -110v117c0 11 -9 20 -20 20h-410v195h371c11 0 20 9 20 20v117c0 11 -9 19 -20 19h-371v196
h391c10 0 19 8 19 19v117c0 11 -9 20 -19 20h-528c-11 0 -20 -9 -20 -20v-820c0 -11 9 -20 20 -20h547c11 0 20 9 20 20z" />
    <glyph glyph-name="F" unicode="F" horiz-adv-x="686" 
d="M646 595v115c0 12 -9 21 -19 21h-547c-11 0 -20 -9 -20 -21v-85l204 -246h-204v-487c0 -11 9 -21 20 -21h117c11 0 19 10 19 21v331h308c14 0 24 9 24 20v117c0 11 -10 19 -24 19h-56l-163 196h322c10 0 19 9 19 20z" />
    <glyph glyph-name="G" unicode="G" horiz-adv-x="851" 
d="M774 372c5 -4 7 -8 7 -14v-345c0 -6 -2 -11 -6 -14v-1c-14 -14 -29 -27 -45 -40c-33 -25 -68 -44 -105 -59c-174 -67 -379 -15 -497 140c-144 188 -108 458 81 602c159 122 377 115 527 -5l3 -2c1 -1 2 -2 2 -3c7 -9 6 -21 -3 -28l-97 -74c-6 -5 -15 -5 -22 -1
c-94 62 -221 61 -316 -11c-120 -91 -143 -263 -51 -383c89 -117 254 -142 373 -59v147h-137c-11 0 -19 8 -19 19v117c0 11 8 20 19 20h274c5 0 9 -2 12 -6z" />
    <glyph glyph-name="H" unicode="H" horiz-adv-x="766" 
d="M666 -109v816c0 13 -9 24 -19 24h-118c-10 0 -19 -11 -19 -24v-328h-274v328c0 13 -8 24 -19 24h-117c-11 0 -20 -11 -20 -24v-816c0 -11 9 -20 20 -20h117c11 0 19 9 19 20v332h274v-332c0 -11 9 -20 19 -20h118c10 0 19 9 19 20z" />
    <glyph glyph-name="I" unicode="I" horiz-adv-x="589" 
d="M373 575h131c14 0 25 8 25 19v117c0 11 -11 20 -25 20h-424c-11 0 -20 -9 -20 -20v-117c0 -11 9 -19 20 -19h136v-547h-136c-11 0 -20 -9 -20 -20v-117c0 -11 9 -20 20 -20h424c14 0 25 9 25 20v117c0 11 -11 20 -25 20h-131v547z" />
    <glyph glyph-name="Iacute" unicode="&#xcd;" horiz-adv-x="589" 
d="M465 911l-32 95c-2 7 -8 12 -15 13h-7l-5 -2l-289 -97l-4 -1c-9 -3 -10 -9 -12 -17l1 -7l2 -4l31 -95l1 -2c2 -8 7 -11 15 -12c2 0 4 1 7 1l294 98l2 1c6 2 11 9 13 17v8zM373 575h131c14 0 25 8 25 19v117c0 11 -11 20 -25 20h-424c-11 0 -20 -9 -20 -20v-117
c0 -11 9 -19 20 -19h136v-547h-136c-11 0 -20 -9 -20 -20v-117c0 -11 9 -20 20 -20h424c14 0 25 9 25 20v117c0 11 -11 20 -25 20h-131v547z" />
    <glyph glyph-name="Icircumflex" unicode="&#xce;" horiz-adv-x="612" 
d="M552 875c0 7 -4 14 -9 17l-3 2l-193 105l-2 1c-3 1 -5 1 -8 1h-68c-1 0 -3 0 -5 -1v-1h-2l-1 -1l-191 -105c-6 -4 -10 -10 -10 -18c0 -4 1 -7 2 -10l55 -70l2 -3c3 -5 9 -9 16 -9c3 0 6 1 9 3l161 88l163 -89s1 0 2 -1c2 -1 5 -1 7 -1c7 0 13 3 16 8l2 4l53 68l3 4
c1 3 1 5 1 8zM386 575h131c14 0 25 8 25 19v117c0 11 -11 20 -25 20h-424c-11 0 -20 -9 -20 -20v-117c0 -11 9 -19 20 -19h136v-547h-136c-11 0 -20 -9 -20 -20v-117c0 -11 9 -20 20 -20h424c14 0 25 9 25 20v117c0 11 -11 20 -25 20h-131v547z" />
    <glyph glyph-name="Idieresis" unicode="&#xcf;" horiz-adv-x="589" 
d="M237 858c0 44 -35 80 -79 80c-42 0 -77 -36 -77 -80c0 -42 35 -77 77 -77c44 0 79 35 79 77zM517 858c0 44 -35 80 -79 80c-42 0 -77 -36 -77 -80c0 -42 35 -77 77 -77c44 0 79 35 79 77zM373 575h131c14 0 25 8 25 19v117c0 11 -11 20 -25 20h-424c-11 0 -20 -9 -20 -20
v-117c0 -11 9 -19 20 -19h136v-547h-136c-11 0 -20 -9 -20 -20v-117c0 -11 9 -20 20 -20h424c14 0 25 9 25 20v117c0 11 -11 20 -25 20h-131v547z" />
    <glyph glyph-name="Igrave" unicode="&#xcc;" horiz-adv-x="589" 
d="M101 907v-8c2 -8 7 -15 13 -17l2 -1l294 -98c3 0 5 -1 7 -1c8 1 13 4 15 12l1 2l31 95l2 4l1 7c-2 8 -3 14 -12 17l-4 1l-289 97l-5 2h-7c-7 -1 -13 -6 -15 -13l-32 -95zM373 575h131c14 0 25 8 25 19v117c0 11 -11 20 -25 20h-424c-11 0 -20 -9 -20 -20v-117
c0 -11 9 -19 20 -19h136v-547h-136c-11 0 -20 -9 -20 -20v-117c0 -11 9 -20 20 -20h424c14 0 25 9 25 20v117c0 11 -11 20 -25 20h-131v547z" />
    <glyph glyph-name="J" unicode="J" horiz-adv-x="413" 
d="M353 139v572c0 2 0 3 -1 4v1c-3 8 -13 14 -23 14h-249c-11 0 -20 -9 -20 -20v-117c0 -11 9 -19 20 -19h117v-435c0 -87 -78 -107 -117 -111l-4 -1c-9 -2 -16 -11 -16 -20v-117c0 -10 7 -18 16 -19c68 3 131 25 180 64c32 25 57 56 73 91c16 34 24 72 24 113z" />
    <glyph glyph-name="K" unicode="K" horiz-adv-x="716" 
d="M656 -109c0 4 -1 8 -2 11l-3 3l-251 354l244 439l2 3c1 3 2 6 2 9c0 11 -9 20 -20 20h-133c-8 0 -14 -4 -18 -11l-158 -285l-79 282c-2 8 -10 14 -18 14h-122c-11 0 -20 -9 -20 -20v-2l2 -8l90 -321h-92v-488c0 -11 9 -20 20 -20h117c11 0 19 9 19 20v329l242 -340l1 -2
c4 -5 9 -7 15 -7h143c11 0 19 9 19 20z" />
    <glyph glyph-name="L" unicode="L" horiz-adv-x="609" 
d="M559 -110v117c0 11 -11 20 -25 20h-288v679c0 13 -8 24 -19 24h-117c-11 0 -20 -11 -20 -24v-816c0 -11 9 -19 20 -19h424c14 0 25 8 25 19z" />
    <glyph glyph-name="M" unicode="M" horiz-adv-x="794" 
d="M70 729v-839c0 -11 9 -20 19 -20h116c11 0 19 9 19 20v468l173 -173l173 173v-468c0 -11 9 -20 20 -20h115c11 0 19 9 19 20v839l-327 -327z" />
    <glyph glyph-name="N" unicode="N" horiz-adv-x="726" 
d="M656 -135v845c0 11 -9 20 -19 20h-118c-10 0 -19 -9 -19 -20v-443l-430 469v-845c0 -11 9 -20 20 -20h117c11 0 19 9 19 20v443z" />
    <glyph glyph-name="O" unicode="O" horiz-adv-x="940" 
d="M470 -130c237 0 430 193 430 430s-193 430 -430 430s-430 -193 -430 -430s193 -430 430 -430zM470 574c151 0 273 -123 273 -274s-122 -273 -273 -273s-274 122 -274 273s123 274 274 274z" />
    <glyph glyph-name="Oacute" unicode="&#xd3;" horiz-adv-x="940" 
d="M638 911l-32 95c-2 7 -8 12 -15 13h-7l-5 -2l-289 -97l-4 -1c-9 -3 -10 -9 -12 -17l1 -7l2 -4l31 -95l1 -2c2 -8 7 -11 15 -12c2 0 4 1 7 1l294 98l2 1c6 2 11 9 13 17v8zM470 -130c237 0 430 193 430 430s-193 430 -430 430s-430 -193 -430 -430s193 -430 430 -430z
M470 574c151 0 273 -123 273 -274s-122 -273 -273 -273s-274 122 -274 273s123 274 274 274z" />
    <glyph glyph-name="Ocircumflex" unicode="&#xd4;" horiz-adv-x="940" 
d="M715 865c0 7 -4 14 -9 17l-3 2l-193 105l-2 1c-3 1 -5 1 -8 1h-68c-1 0 -3 0 -5 -1v-1h-2l-1 -1l-191 -105c-6 -4 -10 -10 -10 -18c0 -4 1 -7 2 -10l55 -70l2 -3c3 -5 9 -9 16 -9c3 0 6 1 9 3l161 88l163 -89s1 0 2 -1c2 -1 5 -1 7 -1c7 0 13 3 16 8l2 4l53 68l3 4
c1 3 1 5 1 8zM470 -130c237 0 430 193 430 430s-193 430 -430 430s-430 -193 -430 -430s193 -430 430 -430zM470 574c151 0 273 -123 273 -274s-122 -273 -273 -273s-274 122 -274 273s123 274 274 274z" />
    <glyph glyph-name="Odieresis" unicode="&#xd6;" horiz-adv-x="940" 
d="M405 858c0 44 -35 80 -79 80c-42 0 -77 -36 -77 -80c0 -42 35 -77 77 -77c44 0 79 35 79 77zM685 858c0 44 -35 80 -79 80c-42 0 -77 -36 -77 -80c0 -42 35 -77 77 -77c44 0 79 35 79 77zM470 -130c237 0 430 193 430 430s-193 430 -430 430s-430 -193 -430 -430
s193 -430 430 -430zM470 574c151 0 273 -123 273 -274s-122 -273 -273 -273s-274 122 -274 273s123 274 274 274z" />
    <glyph glyph-name="Ograve" unicode="&#xd2;" horiz-adv-x="940" 
d="M274 907v-8c2 -8 7 -15 13 -17l2 -1l294 -98c3 0 5 -1 7 -1c8 1 13 4 15 12l1 2l31 95l2 4l1 7c-2 8 -3 14 -12 17l-4 1l-289 97l-5 2h-7c-7 -1 -13 -6 -15 -13l-32 -95zM470 -130c237 0 430 193 430 430s-193 430 -430 430s-430 -193 -430 -430s193 -430 430 -430z
M470 574c151 0 273 -123 273 -274s-122 -273 -273 -273s-274 122 -274 273s123 274 274 274z" />
    <glyph glyph-name="Oslash" unicode="&#xd8;" horiz-adv-x="940" 
d="M606 708c171 -57 294 -219 294 -408c0 -237 -193 -430 -430 -430c-95 0 -183 31 -254 83l-37 -70l-1 -3c-4 -6 -10 -9 -17 -9h-131c-11 0 -20 9 -20 20c0 2 0 5 1 7l3 6l89 172c-40 65 -63 142 -63 224c0 237 193 430 430 430c10 0 20 0 29 -1h87c11 0 20 -9 20 -21z
M470 27c151 0 273 122 273 273c0 129 -89 237 -208 266l-149 -285l-33 -65l-63 -121c48 -43 111 -68 180 -68zM196 300c0 -14 1 -27 3 -41l149 286c-90 -45 -152 -138 -152 -245z" />
    <glyph glyph-name="P" unicode="P" horiz-adv-x="735" 
d="M608 658c59 -46 92 -112 92 -182c0 -69 -33 -135 -92 -182c-58 -47 -139 -71 -233 -72h-139v-331c0 -11 -8 -20 -19 -20h-117c-11 0 -20 9 -20 20v488h154l-154 251v80c0 11 9 20 20 20h273c95 0 176 -25 235 -72zM298 574l117 -193c85 11 129 53 129 95
c0 49 -59 98 -171 98h-75z" />
    <glyph glyph-name="Q" unicode="Q" horiz-adv-x="998" 
d="M810 27h94c13 0 24 -9 24 -19v-118c0 -10 -11 -19 -24 -19h-425c-237 0 -430 193 -430 430s193 429 430 429s429 -192 429 -429c0 -104 -37 -199 -98 -274zM205 301c0 -151 123 -274 274 -274c150 0 273 123 273 274c0 150 -123 273 -273 273c-151 0 -274 -123 -274 -273
z" />
    <glyph glyph-name="R" unicode="R" horiz-adv-x="755" 
d="M661 -98l1 -2c2 -3 2 -6 2 -9c0 -12 -8 -21 -19 -21h-134c-7 0 -13 4 -16 9l-2 3l-171 302l-21 38h-75v-332c0 -11 -9 -20 -19 -20h-117c-11 0 -20 9 -20 20v488h143l-133 234v1l-10 18v79c0 10 9 19 20 19h292c91 0 170 -25 226 -73c55 -46 87 -112 87 -181
c0 -105 -75 -212 -220 -244l5 -9l22 -38zM371 415l21 -37c10 0 20 1 29 2c81 11 117 55 117 95c0 47 -48 98 -156 98h-100z" />
    <glyph glyph-name="S" unicode="S" horiz-adv-x="666" 
d="M626 123c0 105 -55 186 -156 228c-66 27 -130 28 -137 28c0 0 -40 1 -78 16c-52 21 -59 53 -59 81c0 0 2 39 29 66c23 23 59 34 108 34c76 0 103 -33 117 -58c10 -20 15 -40 18 -54v-3c2 -8 9 -15 17 -16h121c11 0 19 9 19 21v2c-4 40 -20 121 -83 185
c-65 66 -150 79 -209 79c-92 0 -166 -27 -218 -80c-73 -73 -75 -166 -75 -176c0 -105 55 -185 156 -226c66 -26 130 -27 137 -27c0 0 40 -1 78 -17c52 -21 59 -54 59 -82c0 0 -2 -25 -16 -48c-21 -34 -60 -51 -121 -51c-57 0 -96 18 -117 53c-10 15 -15 32 -17 44
c0 1 -1 2 -1 3v1c-2 8 -8 13 -16 14h-123c-10 -1 -18 -10 -18 -20c0 -2 1 -4 1 -6c3 -26 12 -67 35 -109c49 -87 140 -136 256 -136c147 0 219 68 254 126c38 61 39 121 39 128z" />
    <glyph glyph-name="T" unicode="T" horiz-adv-x="656" 
d="M621 594v117c0 11 -11 19 -24 19h-542c-11 0 -20 -8 -20 -19v-117c0 -11 9 -20 20 -20h195v-679c0 -13 9 -24 19 -24h118c10 0 19 11 19 24v679h191c13 0 24 9 24 20z" />
    <glyph glyph-name="U" unicode="U" horiz-adv-x="726" 
d="M656 139v570c0 11 -9 21 -19 21h-118c-10 0 -19 -10 -19 -21v-570c0 -109 -123 -113 -137 -113s-137 4 -137 113v570c0 11 -8 21 -19 21h-117c-11 0 -20 -10 -20 -21v-570c0 -83 34 -155 97 -205c53 -41 122 -64 196 -64s143 23 196 64c63 50 97 122 97 205z" />
    <glyph glyph-name="Ugrave" unicode="&#xd9;" horiz-adv-x="726" 
d="M172 907v-8c2 -8 7 -15 13 -17l2 -1l294 -98c3 0 5 -1 7 -1c8 1 13 4 15 12l1 2l31 95l2 4l1 7c-2 8 -3 14 -12 17l-4 1l-289 97l-5 2h-7c-7 -1 -13 -6 -15 -13l-32 -95zM656 139v570c0 11 -9 21 -19 21h-118c-10 0 -19 -10 -19 -21v-570c0 -109 -123 -113 -137 -113
s-137 4 -137 113v570c0 11 -8 21 -19 21h-117c-11 0 -20 -10 -20 -21v-570c0 -83 34 -155 97 -205c53 -41 122 -64 196 -64s143 23 196 64c63 50 97 122 97 205z" />
    <glyph glyph-name="V" unicode="V" horiz-adv-x="639" 
d="M609 709c0 12 -9 21 -20 21h-120c-9 0 -16 -6 -19 -15v-2l-131 -520l-130 520v2c-3 9 -10 15 -19 15h-121c-10 0 -19 -9 -19 -21v-4c0 -1 1 -1 1 -2l206 -818c2 -9 9 -15 18 -15h129c8 0 16 6 18 14c0 1 1 2 1 3l205 816c1 2 1 4 1 6z" />
    <glyph glyph-name="W" unicode="W" horiz-adv-x="794" 
d="M724 -130v839c0 11 -8 20 -19 20h-115c-11 0 -20 -9 -20 -20v-467l-173 173l-173 -173v467c0 11 -8 20 -19 20h-116c-10 0 -19 -9 -19 -20v-839l327 327z" />
    <glyph glyph-name="X" unicode="X" horiz-adv-x="697" 
d="M436 301l206 396l4 7c0 2 1 4 1 6c0 3 -1 6 -2 9l-1 2c-4 6 -10 10 -17 10h-132c-7 0 -14 -5 -17 -11l-130 -249l-129 249c-4 6 -10 11 -18 11h-131c-8 0 -14 -4 -17 -10l-1 -2c-1 -3 -2 -6 -2 -9c0 -2 0 -4 1 -6l3 -7l206 -396l-207 -399l-1 -2c-1 -2 -2 -5 -2 -8
c0 -12 9 -21 20 -21h131c7 0 14 4 17 10l1 2l129 249l130 -249l1 -2c3 -6 9 -10 16 -10h132c11 0 20 9 20 21c0 3 -1 6 -2 8l-1 2z" />
    <glyph glyph-name="Y" unicode="Y" horiz-adv-x="707" 
d="M667 710c0 11 -8 21 -19 21h-132c-6 0 -12 -3 -15 -8l-2 -3s0 -1 -1 -2l-132 -255l-129 258c-3 6 -10 10 -17 10h-130c-7 0 -12 -3 -16 -8l-3 -6c-1 -2 -1 -5 -1 -7c0 -3 1 -6 2 -10l205 -408l-202 -388l-3 -6c-1 -2 -1 -4 -1 -6c0 -12 8 -21 19 -21h132c7 0 13 4 16 9
c1 0 1 0 1 1l1 3l174 333l33 65l217 417l2 3c1 3 1 5 1 8z" />
    <glyph glyph-name="Z" unicode="Z" horiz-adv-x="629" 
d="M549 594v117c0 11 -11 20 -24 20h-425c-11 0 -20 -9 -20 -20v-117c0 -11 9 -20 20 -20h272l-283 -529c-6 -13 -9 -26 -9 -40v-114c0 -11 9 -20 20 -20h425c13 0 24 9 24 20v117c0 11 -11 19 -24 19h-268l283 530c6 12 9 24 9 37z" />
    <glyph glyph-name="a" unicode="a" 
d="M641 203v-117c0 -11 -9 -19 -20 -19h-27l42 -167l1 -5v-2c0 -12 -8 -21 -19 -21h-121c-8 0 -15 6 -18 14l-1 3l-44 178h-171l-44 -179s-1 -1 -1 -2c-2 -8 -10 -14 -18 -14h-121c-10 0 -19 9 -19 21v4c1 0 1 1 1 2l203 811l1 6c3 7 10 12 18 12h131c8 0 15 -5 18 -12l1 -5
l122 -489h66c11 0 20 -8 20 -19zM302 222h93l-46 185z" />
    <glyph glyph-name="aacute" unicode="&#xe1;" 
d="M524 911l-32 95c-2 7 -8 12 -15 13h-7l-5 -2l-289 -97l-4 -1c-9 -3 -10 -9 -12 -17l1 -7l2 -4l31 -95l1 -2c2 -8 7 -11 15 -12c2 0 4 1 7 1l294 98l2 1c6 2 11 9 13 17v8zM641 203v-117c0 -11 -9 -19 -20 -19h-27l42 -167l1 -5v-2c0 -12 -8 -21 -19 -21h-121
c-8 0 -15 6 -18 14l-1 3l-44 178h-171l-44 -179s-1 -1 -1 -2c-2 -8 -10 -14 -18 -14h-121c-10 0 -19 9 -19 21v4c1 0 1 1 1 2l203 811l1 6c3 7 10 12 18 12h131c8 0 15 -5 18 -12l1 -5l122 -489h66c11 0 20 -8 20 -19zM302 222h93l-46 185z" />
    <glyph glyph-name="acircumflex" unicode="&#xe2;" 
d="M590 889c0 7 -3 14 -9 17l-3 2l-193 105l-2 1c-3 1 -5 2 -8 2l-63 -1h-5c-1 0 -3 0 -5 -1l-2 -1l-1 -1l-191 -105c-6 -4 -10 -10 -10 -18c0 -4 0 -7 2 -10l55 -100l2 -3c3 -5 9 -9 16 -9c3 0 6 1 8 2c1 0 1 0 1 1l161 88l163 -89s1 0 2 -1c2 -1 5 -1 8 -1c6 0 12 3 15 8
l3 4l52 98l3 4c1 3 1 5 1 8zM641 203v-117c0 -11 -9 -19 -19 -19h-27l41 -167l1 -4c1 0 1 -1 1 -1v-2c0 -12 -9 -21 -20 -21h-120c-9 0 -16 6 -18 14l-1 3l-45 178h-170l-45 -179v-2c-3 -8 -10 -14 -19 -14h-120c-11 0 -20 9 -20 21c0 1 1 2 1 4v2l203 811l2 6
c3 7 10 12 18 12h130c9 0 15 -5 18 -12l2 -5l122 -489h66c10 0 19 -8 19 -19zM303 222h92l-46 185z" />
    <glyph glyph-name="adieresis" unicode="&#xe4;" 
d="M291 858c0 44 -35 80 -79 80c-42 0 -77 -36 -77 -80c0 -42 35 -77 77 -77c44 0 79 35 79 77zM571 858c0 44 -35 80 -79 80c-42 0 -77 -36 -77 -80c0 -42 35 -77 77 -77c44 0 79 35 79 77zM641 203v-117c0 -11 -9 -19 -19 -19h-27l41 -167l1 -4c1 0 1 -1 1 -1v-2
c0 -12 -9 -21 -20 -21h-120c-9 0 -16 6 -18 14l-1 3l-45 178h-170l-45 -179v-2c-3 -8 -10 -14 -19 -14h-120c-11 0 -20 9 -20 21c0 1 1 2 1 4v2l203 811l2 6c3 7 10 12 18 12h130c9 0 15 -5 18 -12l2 -5l122 -489h66c10 0 19 -8 19 -19zM303 222h92l-46 185z" />
    <glyph glyph-name="agrave" unicode="&#xe0;" 
d="M167 907v-8c2 -8 7 -15 13 -17l2 -1l294 -98c3 0 5 -1 7 -1c8 1 13 4 15 12l1 2l31 95l2 4l1 7c-2 8 -3 14 -12 17l-4 1l-289 97l-5 2h-7c-7 -1 -13 -6 -15 -13l-32 -95zM641 203v-117c0 -11 -9 -19 -19 -19h-27l41 -167l1 -4c1 0 1 -1 1 -1v-2c0 -12 -9 -21 -20 -21
h-120c-9 0 -16 6 -18 14l-1 3l-45 178h-170l-45 -179v-2c-3 -8 -10 -14 -19 -14h-120c-11 0 -20 9 -20 21c0 1 1 2 1 4v2l203 811l2 6c3 7 10 12 18 12h130c9 0 15 -5 18 -12l2 -5l122 -489h66c10 0 19 -8 19 -19zM303 222h92l-46 185z" />
    <glyph glyph-name="ae" unicode="&#xe6;" horiz-adv-x="1397" 
d="M1347 -110v117c0 11 -9 20 -19 20h-411v195h371c11 0 20 9 20 20v117c0 11 -9 19 -20 19h-371v196h391c11 0 20 8 20 19v117c0 11 -9 20 -20 20h-527c-11 0 -20 -9 -20 -20v-820c0 -11 9 -20 20 -20h547c10 0 19 9 19 20zM641 203v-117c0 -11 -9 -19 -20 -19h-27l42 -167
l1 -5v-2c0 -12 -8 -21 -19 -21h-121c-8 0 -15 6 -18 14l-1 3l-44 178h-171l-44 -179s-1 -1 -1 -2c-2 -8 -10 -14 -18 -14h-121c-10 0 -19 9 -19 21v4c1 0 1 1 1 2l203 811l1 6c3 7 10 12 18 12h131c8 0 15 -5 18 -12l1 -5l122 -489h66c11 0 20 -8 20 -19zM302 222h93
l-46 185z" />
    <glyph glyph-name="b" unicode="b" horiz-adv-x="745" 
d="M604 300c52 -46 81 -109 81 -176c0 -126 -107 -254 -312 -254h-293c-11 0 -20 10 -20 21v487h167l-167 250v81c0 12 9 21 20 21h293c91 0 169 -25 226 -73c55 -47 86 -113 86 -181c0 -64 -27 -128 -81 -176zM284 574l129 -193c79 11 116 54 116 95c0 47 -49 98 -156 98
h-89zM216 27h157c107 0 156 50 156 97s-49 98 -156 98h-157v-195z" />
    <glyph glyph-name="c" unicode="c" horiz-adv-x="812" 
d="M668 -92c-171 -76 -379 -35 -506 115c-154 181 -132 454 50 608c153 130 372 134 529 22l3 -2l2 -2c8 -9 7 -22 -1 -29l-94 -79c-6 -5 -14 -6 -22 -2c-97 57 -225 49 -316 -28c-115 -98 -129 -271 -31 -387c91 -107 248 -127 362 -50c0 0 1 0 1 1c8 5 20 3 26 -5l75 -89
c8 -8 7 -21 -1 -28c-1 0 -1 0 -1 -1h-1v-1c-24 -17 -49 -31 -75 -43z" />
    <glyph glyph-name="ccedilla" unicode="&#xe7;" horiz-adv-x="810" 
d="M667 69l75 -87c7 -9 6 -22 -2 -29c-1 -1 -2 -1 -2 -1c-23 -17 -48 -31 -75 -43c-14 -6 -29 -12 -44 -17c25 -38 38 -85 34 -134c-10 -117 -112 -203 -228 -193c-102 9 -179 88 -192 184c0 1 0 2 -1 3v3c1 11 11 19 22 18l76 -6c8 -1 14 -7 17 -14v-3
c11 -39 45 -69 87 -73c54 -4 102 36 107 90c4 53 -35 102 -88 107c-110 10 -215 61 -292 151c-152 181 -129 452 53 605c152 128 370 131 526 19c1 0 2 -1 3 -2c1 0 2 -1 2 -2c7 -9 7 -21 -2 -28l-93 -78c-6 -6 -14 -6 -22 -2c-96 56 -223 50 -314 -27
c-115 -96 -130 -270 -33 -385c90 -107 246 -128 360 -51l1 1c8 5 19 3 25 -6z" />
    <glyph glyph-name="d" unicode="d" horiz-adv-x="764" 
d="M294 -129h-214c-11 0 -20 10 -20 24v815c0 10 9 19 20 19h214c124 0 248 -54 332 -157c151 -183 124 -454 -58 -604c-80 -66 -177 -98 -274 -97zM506 473c-54 66 -133 100 -212 100h-78v-546h78c62 -1 124 20 174 62c117 95 134 268 38 384z" />
    <glyph glyph-name="e" unicode="e" horiz-adv-x="696" 
d="M646 -110v117c0 11 -9 20 -19 20h-411v195h371c11 0 20 9 20 20v117c0 11 -9 19 -20 19h-371v196h391c11 0 20 8 20 19v117c0 11 -9 20 -20 20h-527c-11 0 -20 -9 -20 -20v-820c0 -11 9 -20 20 -20h547c10 0 19 9 19 20z" />
    <glyph glyph-name="eacute" unicode="&#xe9;" horiz-adv-x="725" 
d="M524 911l-32 95c-2 7 -8 12 -15 13h-7l-5 -2l-289 -97l-4 -1c-9 -3 -10 -9 -12 -17l1 -7l2 -4l31 -95l1 -2c2 -8 7 -11 15 -12c2 0 4 1 7 1l294 98l2 1c6 2 11 9 13 17v8zM655 -110v117c0 11 -9 20 -20 20h-409v195h370c11 0 20 8 20 19v117c0 11 -9 20 -20 20h-370v195
h390c11 0 19 8 19 19v117c0 11 -8 20 -19 20h-527c-10 0 -19 -9 -19 -20v-819c0 -11 9 -19 19 -19h546c11 0 20 8 20 19z" />
    <glyph glyph-name="ecircumflex" unicode="&#xea;" horiz-adv-x="727" 
d="M175 795l-55 70c-1 3 -2 6 -2 10c0 8 4 14 10 18l191 105l1 1h2v1c2 1 4 1 5 1h68c3 0 5 0 8 -1l2 -1l193 -105l3 -2c5 -3 9 -10 9 -17c0 -3 0 -5 -1 -8l-3 -4l-53 -68l-2 -4c-3 -5 -9 -8 -16 -8c-2 0 -5 0 -7 1c-1 1 -2 1 -2 1l-163 89l-161 -89c-3 -1 -6 -2 -9 -2
c-7 0 -13 4 -16 9zM227 27h410c11 0 20 -9 20 -20v-117c0 -11 -9 -20 -20 -20h-547c-11 0 -20 9 -20 20v820c0 11 9 20 20 20h528c10 0 19 -9 19 -20v-117c0 -11 -9 -20 -20 -20h-390v-195h371c11 0 20 -8 20 -19v-117c0 -11 -9 -20 -20 -20h-371v-195z" />
    <glyph glyph-name="edieresis" unicode="&#xeb;" horiz-adv-x="727" 
d="M208 781c-42 0 -77 35 -77 77c0 44 35 80 77 80c44 0 79 -36 79 -80c0 -42 -35 -77 -79 -77zM488 781c-42 0 -77 35 -77 77c0 44 35 80 77 80c44 0 79 -36 79 -80c0 -42 -35 -77 -79 -77zM227 27h410c11 0 20 -9 20 -20v-117c0 -11 -9 -20 -20 -20h-547
c-11 0 -20 9 -20 20v820c0 11 9 20 20 20h528c10 0 19 -9 19 -20v-117c0 -11 -9 -20 -20 -20h-390v-195h371c11 0 20 -8 20 -19v-117c0 -11 -9 -20 -20 -20h-371v-195z" />
    <glyph glyph-name="egrave" unicode="&#xe8;" horiz-adv-x="727" 
d="M162 907v-8c2 -8 7 -15 13 -17l2 -1l294 -98c3 0 5 -1 7 -1c8 1 13 4 15 12l1 2l31 95l2 4l1 7c-2 8 -3 14 -12 17l-4 1l-289 97l-5 2h-7c-7 -1 -13 -6 -15 -13l-32 -95zM657 -110v117c0 11 -9 20 -20 20h-410v195h371c11 0 20 9 20 20v117c0 11 -9 19 -20 19h-371v196
h391c10 0 19 8 19 19v117c0 11 -9 20 -19 20h-528c-11 0 -20 -9 -20 -20v-820c0 -11 9 -20 20 -20h547c11 0 20 9 20 20z" />
    <glyph glyph-name="f" unicode="f" horiz-adv-x="686" 
d="M646 595v115c0 12 -9 21 -19 21h-547c-11 0 -20 -9 -20 -21v-85l204 -246h-204v-487c0 -11 9 -21 20 -21h117c11 0 19 10 19 21v331h308c14 0 24 9 24 20v117c0 11 -10 19 -24 19h-56l-163 196h322c10 0 19 9 19 20z" />
    <glyph glyph-name="g" unicode="g" horiz-adv-x="831" 
d="M764 372c5 -4 7 -8 7 -14v-345c0 -6 -2 -11 -6 -14v-1c-14 -14 -29 -27 -45 -40c-33 -25 -68 -44 -105 -59c-174 -67 -379 -15 -497 140c-144 188 -108 458 81 602c159 122 377 115 527 -5l3 -2c1 -1 2 -2 2 -3c7 -9 6 -21 -3 -28l-97 -74c-6 -5 -15 -5 -22 -1
c-94 62 -221 61 -316 -11c-120 -91 -143 -263 -51 -383c89 -117 254 -142 373 -59v147h-137c-11 0 -19 8 -19 19v117c0 11 8 20 19 20h274c5 0 9 -2 12 -6z" />
    <glyph glyph-name="h" unicode="h" horiz-adv-x="726" 
d="M656 -109v816c0 13 -9 24 -19 24h-118c-10 0 -19 -11 -19 -24v-328h-274v328c0 13 -8 24 -19 24h-117c-11 0 -20 -11 -20 -24v-816c0 -11 9 -20 20 -20h117c11 0 19 9 19 20v332h274v-332c0 -11 9 -20 19 -20h118c10 0 19 9 19 20z" />
    <glyph glyph-name="i" unicode="i" horiz-adv-x="589" 
d="M373 575h131c14 0 25 8 25 19v117c0 11 -11 20 -25 20h-424c-11 0 -20 -9 -20 -20v-117c0 -11 9 -19 20 -19h136v-547h-136c-11 0 -20 -9 -20 -20v-117c0 -11 9 -20 20 -20h424c14 0 25 9 25 20v117c0 11 -11 20 -25 20h-131v547z" />
    <glyph glyph-name="iacute" unicode="&#xed;" horiz-adv-x="589" 
d="M465 911l-32 95c-2 7 -8 12 -15 13h-7l-5 -2l-289 -97l-4 -1c-9 -3 -10 -9 -12 -17l1 -7l2 -4l31 -95l1 -2c2 -8 7 -11 15 -12c2 0 4 1 7 1l294 98l2 1c6 2 11 9 13 17v8zM373 575h131c14 0 25 8 25 19v117c0 11 -11 20 -25 20h-424c-11 0 -20 -9 -20 -20v-117
c0 -11 9 -19 20 -19h136v-547h-136c-11 0 -20 -9 -20 -20v-117c0 -11 9 -20 20 -20h424c14 0 25 9 25 20v117c0 11 -11 20 -25 20h-131v547z" />
    <glyph glyph-name="icircumflex" unicode="&#xee;" horiz-adv-x="612" 
d="M552 875c0 7 -4 14 -9 17l-3 2l-193 105l-2 1c-3 1 -5 1 -8 1h-68c-1 0 -3 0 -5 -1v-1h-2l-1 -1l-191 -105c-6 -4 -10 -10 -10 -18c0 -4 1 -7 2 -10l55 -70l2 -3c3 -5 9 -9 16 -9c3 0 6 1 9 3l161 88l163 -89s1 0 2 -1c2 -1 5 -1 7 -1c7 0 13 3 16 8l2 4l53 68l3 4
c1 3 1 5 1 8zM373 575h131c14 0 25 8 25 19v117c0 11 -11 20 -25 20h-424c-11 0 -20 -9 -20 -20v-117c0 -11 9 -19 20 -19h136v-547h-136c-11 0 -20 -9 -20 -20v-117c0 -11 9 -20 20 -20h424c14 0 25 9 25 20v117c0 11 -11 20 -25 20h-131v547z" />
    <glyph glyph-name="idieresis" unicode="&#xef;" horiz-adv-x="589" 
d="M237 858c0 44 -35 80 -79 80c-42 0 -77 -36 -77 -80c0 -42 35 -77 77 -77c44 0 79 35 79 77zM517 858c0 44 -35 80 -79 80c-42 0 -77 -36 -77 -80c0 -42 35 -77 77 -77c44 0 79 35 79 77zM373 575h131c14 0 25 8 25 19v117c0 11 -11 20 -25 20h-424c-11 0 -20 -9 -20 -20
v-117c0 -11 9 -19 20 -19h136v-547h-136c-11 0 -20 -9 -20 -20v-117c0 -11 9 -20 20 -20h424c14 0 25 9 25 20v117c0 11 -11 20 -25 20h-131v547z" />
    <glyph glyph-name="igrave" unicode="&#xec;" horiz-adv-x="589" 
d="M101 907v-8c2 -8 7 -15 13 -17l2 -1l294 -98c3 0 5 -1 7 -1c8 1 13 4 15 12l1 2l31 95l2 4l1 7c-2 8 -3 14 -12 17l-4 1l-289 97l-5 2h-7c-7 -1 -13 -6 -15 -13l-32 -95zM373 575h131c14 0 25 8 25 19v117c0 11 -11 20 -25 20h-424c-11 0 -20 -9 -20 -20v-117
c0 -11 9 -19 20 -19h136v-547h-136c-11 0 -20 -9 -20 -20v-117c0 -11 9 -20 20 -20h424c14 0 25 9 25 20v117c0 11 -11 20 -25 20h-131v547z" />
    <glyph glyph-name="ij" unicode="&#x133;" horiz-adv-x="1002" 
d="M373 575h131c14 0 25 8 25 19v117c0 11 -11 20 -25 20h-424c-11 0 -20 -9 -20 -20v-117c0 -11 9 -19 20 -19h136v-547h-136c-11 0 -20 -9 -20 -20v-117c0 -11 9 -20 20 -20h424c14 0 25 9 25 20v117c0 11 -11 20 -25 20h-131v547zM942 139v572c0 2 0 3 -1 4v1
c-3 8 -13 14 -23 14h-249c-11 0 -20 -9 -20 -20v-117c0 -11 9 -19 20 -19h117v-435c0 -87 -78 -107 -117 -111l-4 -1c-9 -2 -16 -11 -16 -20v-117c0 -10 7 -18 16 -19c68 3 131 25 180 64c32 25 57 56 73 91c16 34 24 72 24 113z" />
    <glyph glyph-name="j" unicode="j" horiz-adv-x="413" 
d="M353 139v572c0 2 0 3 -1 4v1c-3 8 -13 14 -23 14h-249c-11 0 -20 -9 -20 -20v-117c0 -11 9 -19 20 -19h117v-435c0 -87 -78 -107 -117 -111l-4 -1c-9 -2 -16 -11 -16 -20v-117c0 -10 7 -18 16 -19c68 3 131 25 180 64c32 25 57 56 73 91c16 34 24 72 24 113z" />
    <glyph glyph-name="k" unicode="k" horiz-adv-x="696" 
d="M646 -109c0 4 -1 8 -2 11l-3 3l-251 354l244 439l2 3c1 3 2 6 2 9c0 11 -9 20 -20 20h-133c-8 0 -14 -4 -18 -11l-158 -285l-79 282c-2 8 -10 14 -18 14h-122c-11 0 -20 -9 -20 -20v-2l2 -8l90 -321h-92v-488c0 -11 9 -20 20 -20h117c11 0 19 9 19 20v329l242 -340l1 -2
c4 -5 9 -7 15 -7h143c11 0 19 9 19 20z" />
    <glyph glyph-name="l" unicode="l" horiz-adv-x="579" 
d="M539 -110v117c0 11 -11 20 -25 20h-288v679c0 13 -8 24 -19 24h-117c-11 0 -20 -11 -20 -24v-816c0 -11 9 -19 20 -19h424c14 0 25 8 25 19z" />
    <glyph glyph-name="ldot" unicode="&#x140;" horiz-adv-x="579" 
d="M539 -110v117c0 11 -11 20 -25 20h-288v679c0 13 -8 24 -19 24h-117c-11 0 -20 -11 -20 -24v-816c0 -11 9 -19 20 -19h424c14 0 25 8 25 19z" />
    <glyph glyph-name="m" unicode="m" horiz-adv-x="774" 
d="M60 729v-839c0 -11 9 -20 19 -20h116c11 0 19 9 19 20v468l173 -173l173 173v-468c0 -11 9 -20 20 -20h115c11 0 19 9 19 20v839l-327 -327z" />
    <glyph glyph-name="n" unicode="n" horiz-adv-x="706" 
d="M646 -135v845c0 11 -9 20 -19 20h-118c-10 0 -19 -9 -19 -20v-443l-430 469v-845c0 -11 9 -20 20 -20h117c11 0 19 9 19 20v443z" />
    <glyph glyph-name="o" unicode="o" horiz-adv-x="930" 
d="M465 -130c237 0 430 193 430 430s-193 430 -430 430s-430 -193 -430 -430s193 -430 430 -430zM465 574c151 0 273 -123 273 -274s-122 -273 -273 -273s-274 122 -274 273s123 274 274 274z" />
    <glyph glyph-name="oacute" unicode="&#xf3;" horiz-adv-x="940" 
d="M638 911l-32 95c-2 7 -8 12 -15 13h-7l-5 -2l-289 -97l-4 -1c-9 -3 -10 -9 -12 -17l1 -7l2 -4l31 -95l1 -2c2 -8 7 -11 15 -12c2 0 4 1 7 1l294 98l2 1c6 2 11 9 13 17v8zM470 -130c237 0 430 193 430 430s-193 430 -430 430s-430 -193 -430 -430s193 -430 430 -430z
M470 574c151 0 273 -123 273 -274s-122 -273 -273 -273s-274 122 -274 273s123 274 274 274z" />
    <glyph glyph-name="ocircumflex" unicode="&#xf4;" horiz-adv-x="940" 
d="M715 865c0 7 -4 14 -9 17l-3 2l-193 105l-2 1c-3 1 -5 1 -8 1h-68c-1 0 -3 0 -5 -1v-1h-2l-1 -1l-191 -105c-6 -4 -10 -10 -10 -18c0 -4 1 -7 2 -10l55 -70l2 -3c3 -5 9 -9 16 -9c3 0 6 1 9 3l161 88l163 -89s1 0 2 -1c2 -1 5 -1 7 -1c7 0 13 3 16 8l2 4l53 68l3 4
c1 3 1 5 1 8zM470 -130c237 0 430 193 430 430s-193 430 -430 430s-430 -193 -430 -430s193 -430 430 -430zM470 574c151 0 273 -123 273 -274s-122 -273 -273 -273s-274 122 -274 273s123 274 274 274z" />
    <glyph glyph-name="odieresis" unicode="&#xf6;" horiz-adv-x="940" 
d="M405 858c0 44 -35 80 -79 80c-42 0 -77 -36 -77 -80c0 -42 35 -77 77 -77c44 0 79 35 79 77zM685 858c0 44 -35 80 -79 80c-42 0 -77 -36 -77 -80c0 -42 35 -77 77 -77c44 0 79 35 79 77zM470 -130c237 0 430 193 430 430s-193 430 -430 430s-430 -193 -430 -430
s193 -430 430 -430zM470 574c151 0 273 -123 273 -274s-122 -273 -273 -273s-274 122 -274 273s123 274 274 274z" />
    <glyph glyph-name="ograve" unicode="&#xf2;" horiz-adv-x="940" 
d="M274 907v-8c2 -8 7 -15 13 -17l2 -1l294 -98c3 0 5 -1 7 -1c8 1 13 4 15 12l1 2l31 95l2 4l1 7c-2 8 -3 14 -12 17l-4 1l-289 97l-5 2h-7c-7 -1 -13 -6 -15 -13l-32 -95zM470 -130c237 0 430 193 430 430s-193 430 -430 430s-430 -193 -430 -430s193 -430 430 -430z
M470 574c151 0 273 -123 273 -274s-122 -273 -273 -273s-274 122 -274 273s123 274 274 274z" />
    <glyph glyph-name="oslash" unicode="&#xf8;" horiz-adv-x="930" 
d="M606 708v-2c168 -58 289 -218 289 -406c0 -237 -193 -430 -430 -430c-93 0 -180 30 -251 81l-35 -68l-1 -3c-4 -6 -10 -9 -17 -9h-131c-11 0 -20 9 -20 20c0 2 0 5 1 7l3 6l87 167c-42 67 -66 145 -66 229c0 237 193 430 430 430c10 0 20 0 29 -1h92c11 0 20 -9 20 -21z
M465 27c151 0 273 122 273 273c0 127 -86 234 -204 265l-148 -284l-33 -65l-65 -124c48 -41 110 -65 177 -65zM191 300c0 -16 1 -32 4 -48l155 297c-94 -44 -159 -139 -159 -249z" />
    <glyph glyph-name="otilde" unicode="&#xf5;" horiz-adv-x="726" 
d="M172 907v-8c2 -8 7 -15 13 -17l2 -1l294 -98c3 0 5 -1 7 -1c8 1 13 4 15 12l1 2l31 95l2 4l1 7c-2 8 -3 14 -12 17l-4 1l-289 97l-5 2h-7c-7 -1 -13 -6 -15 -13l-32 -95zM656 139v570c0 11 -9 21 -19 21h-118c-10 0 -19 -10 -19 -21v-570c0 -109 -123 -113 -137 -113
s-137 4 -137 113v570c0 11 -8 21 -19 21h-117c-11 0 -20 -10 -20 -21v-570c0 -83 34 -155 97 -205c53 -41 122 -64 196 -64s143 23 196 64c63 50 97 122 97 205z" />
    <glyph glyph-name="oe" unicode="&#x153;" horiz-adv-x="1366" 
d="M896 27h411c10 0 19 -9 19 -20v-117c0 -11 -9 -20 -19 -20h-547c-11 0 -20 9 -20 20v76c-74 -60 -168 -96 -270 -96c-237 0 -430 193 -430 430s193 430 430 430c102 0 196 -36 270 -96v76c0 11 9 20 20 20h527c11 0 20 -9 20 -20v-117c0 -11 -9 -19 -20 -19h-391v-196
h371c11 0 20 -8 20 -19v-117c0 -11 -9 -20 -20 -20h-371v-195zM470 27c137 0 250 101 270 232v82c-20 132 -133 233 -270 233c-151 0 -274 -123 -274 -274s123 -273 274 -273z" />
    <glyph glyph-name="p" unicode="p" horiz-adv-x="720" 
d="M598 658c59 -46 92 -112 92 -182c0 -69 -33 -135 -92 -182c-58 -47 -139 -71 -233 -72h-139v-331c0 -11 -8 -20 -19 -20h-117c-11 0 -20 9 -20 20v488h154l-154 251v80c0 11 9 20 20 20h273c95 0 176 -25 235 -72zM288 574l117 -193c85 11 129 53 129 95
c0 49 -59 98 -171 98h-75z" />
    <glyph glyph-name="q" unicode="q" horiz-adv-x="984" 
d="M806 27h94c13 0 24 -9 24 -19v-118c0 -10 -11 -19 -24 -19h-425c-237 0 -430 193 -430 430s193 429 430 429s430 -192 430 -429c0 -104 -37 -199 -99 -274zM201 301c0 -151 123 -274 274 -274s273 123 273 274c0 150 -122 273 -273 273s-274 -123 -274 -273z" />
    <glyph glyph-name="r" unicode="r" horiz-adv-x="735" 
d="M651 -98l1 -2c2 -3 2 -6 2 -9c0 -12 -8 -21 -19 -21h-134c-7 0 -13 4 -16 9l-2 3l-171 302l-21 38h-75v-332c0 -11 -9 -20 -19 -20h-117c-11 0 -20 9 -20 20v488h143l-133 234v1l-10 18v79c0 10 9 19 20 19h292c91 0 170 -25 226 -73c55 -46 87 -112 87 -181
c0 -105 -75 -212 -220 -244l5 -9l22 -38zM361 415l21 -37c10 0 20 1 29 2c81 11 117 55 117 95c0 47 -48 98 -156 98h-100z" />
    <glyph glyph-name="s" unicode="s" horiz-adv-x="666" 
d="M626 123c0 105 -55 186 -156 228c-66 27 -130 28 -137 28c0 0 -40 1 -78 16c-52 21 -59 53 -59 81c0 0 2 39 29 66c23 23 59 34 108 34c76 0 103 -33 117 -58c10 -20 15 -40 18 -54v-3c2 -8 9 -15 17 -16h121c11 0 19 9 19 21v2c-4 40 -20 121 -83 185
c-65 66 -150 79 -209 79c-92 0 -166 -27 -218 -80c-73 -73 -75 -166 -75 -176c0 -105 55 -185 156 -226c66 -26 130 -27 137 -27c0 0 40 -1 78 -17c52 -21 59 -54 59 -82c0 0 -2 -25 -16 -48c-21 -34 -60 -51 -121 -51c-57 0 -96 18 -117 53c-10 15 -15 32 -17 44
c0 1 -1 2 -1 3v1c-2 8 -8 13 -16 14h-123c-10 -1 -18 -10 -18 -20c0 -2 1 -4 1 -6c3 -26 12 -67 35 -109c49 -87 140 -136 256 -136c147 0 219 68 254 126c38 61 39 121 39 128z" />
    <glyph glyph-name="t" unicode="t" horiz-adv-x="656" 
d="M621 594v117c0 11 -11 19 -24 19h-542c-11 0 -20 -8 -20 -19v-117c0 -11 9 -20 20 -20h195v-679c0 -13 9 -24 19 -24h118c10 0 19 11 19 24v679h191c13 0 24 9 24 20z" />
    <glyph glyph-name="u" unicode="u" horiz-adv-x="706" 
d="M646 139v570c0 11 -9 21 -19 21h-118c-10 0 -19 -10 -19 -21v-570c0 -109 -123 -113 -137 -113s-137 4 -137 113v570c0 11 -8 21 -19 21h-117c-11 0 -20 -10 -20 -21v-570c0 -83 34 -155 97 -205c53 -41 122 -64 196 -64s143 23 196 64c63 50 97 122 97 205z" />
    <glyph glyph-name="uacute" unicode="&#xfa;" horiz-adv-x="726" 
d="M538 907l-34 99c-2 7 -8 12 -15 13h-7l-5 -2l-289 -97l-4 -1c-9 -3 -10 -9 -12 -17l1 -7l2 -4l31 -95l1 -2c2 -8 7 -11 15 -12c2 0 4 1 7 1l294 98s13 10 15 18v8zM656 139v570c0 11 -9 21 -19 21h-118c-10 0 -19 -10 -19 -21v-570c0 -109 -123 -113 -137 -113
s-137 4 -137 113v570c0 11 -8 21 -19 21h-117c-11 0 -20 -10 -20 -21v-570c0 -83 34 -155 97 -205c53 -41 122 -64 196 -64s143 23 196 64c63 50 97 122 97 205z" />
    <glyph glyph-name="ugrave" unicode="&#xf9;" horiz-adv-x="726" 
d="M172 907v-8c2 -8 7 -15 13 -17l2 -1l294 -98c3 0 5 -1 7 -1c8 1 13 4 15 12l1 2l31 95l2 4l1 7c-2 8 -3 14 -12 17l-4 1l-289 97l-5 2h-7c-7 -1 -13 -6 -15 -13l-32 -95zM656 139v570c0 11 -9 21 -19 21h-118c-10 0 -19 -10 -19 -21v-570c0 -109 -123 -113 -137 -113
s-137 4 -137 113v570c0 11 -8 21 -19 21h-117c-11 0 -20 -10 -20 -21v-570c0 -83 34 -155 97 -205c53 -41 122 -64 196 -64s143 23 196 64c63 50 97 122 97 205z" />
    <glyph glyph-name="v" unicode="v" horiz-adv-x="639" 
d="M609 709c0 12 -9 21 -20 21h-120c-9 0 -16 -6 -19 -15v-2l-131 -520l-130 520v2c-3 9 -10 15 -19 15h-121c-10 0 -19 -9 -19 -21v-4c0 -1 1 -1 1 -2l206 -818c2 -9 9 -15 18 -15h129c8 0 16 6 18 14c0 1 1 2 1 3l205 816c1 2 1 4 1 6z" />
    <glyph glyph-name="w" unicode="w" horiz-adv-x="774" 
d="M714 -130v839c0 11 -8 20 -19 20h-115c-11 0 -20 -9 -20 -20v-467l-173 173l-173 -173v467c0 11 -8 20 -19 20h-116c-10 0 -19 -9 -19 -20v-839l327 327z" />
    <glyph glyph-name="x" unicode="x" horiz-adv-x="697" 
d="M436 301l206 396l4 7c0 2 1 4 1 6c0 3 -1 6 -2 9l-1 2c-4 6 -10 10 -17 10h-132c-7 0 -14 -5 -17 -11l-130 -249l-129 249c-4 6 -10 11 -18 11h-131c-8 0 -14 -4 -17 -10l-1 -2c-1 -3 -2 -6 -2 -9c0 -2 0 -4 1 -6l3 -7l206 -396l-207 -399l-1 -2c-1 -2 -2 -5 -2 -8
c0 -12 9 -21 20 -21h131c7 0 14 4 17 10l1 2l129 249l130 -249l1 -2c3 -6 9 -10 16 -10h132c11 0 20 9 20 21c0 3 -1 6 -2 8l-1 2z" />
    <glyph glyph-name="y" unicode="y" horiz-adv-x="677" 
d="M657 710c0 11 -8 21 -19 21h-132c-6 0 -12 -3 -15 -8l-2 -3s0 -1 -1 -2l-132 -255l-129 258c-3 6 -10 10 -17 10h-130c-7 0 -12 -3 -16 -8l-3 -6c-1 -2 -1 -5 -1 -7c0 -3 1 -6 2 -10l205 -408l-202 -388l-3 -6c-1 -2 -1 -4 -1 -6c0 -12 8 -21 19 -21h132c7 0 13 4 16 9
c1 0 1 0 1 1l1 3l174 333l33 65l217 417l2 3c1 3 1 5 1 8z" />
    <glyph glyph-name="z" unicode="z" horiz-adv-x="589" 
d="M529 594v117c0 11 -11 20 -24 20h-425c-11 0 -20 -9 -20 -20v-117c0 -11 9 -20 20 -20h272l-283 -529c-6 -13 -9 -26 -9 -40v-114c0 -11 9 -20 20 -20h425c13 0 24 9 24 20v117c0 11 -11 19 -24 19h-268l283 530c6 12 9 24 9 37z" />
    <glyph glyph-name="zero" unicode="0" horiz-adv-x="608" 
d="M304 730c176 0 254 -156 254 -430c0 -273 -78 -430 -254 -430s-254 157 -254 430c0 274 78 430 254 430zM361 60c15 26 41 93 41 240s-26 214 -41 240s-27 34 -57 34s-42 -8 -57 -34s-41 -93 -41 -240s26 -214 41 -240s27 -33 57 -33s42 7 57 33z" />
    <glyph glyph-name="one" unicode="1" horiz-adv-x="412" 
d="M362 -99v810c0 5 -2 9 -6 13s-8 6 -14 6h-244c-7 0 -13 -3 -17 -9c0 0 0 -1 -1 -1l-67 -114s0 -1 -1 -1c-1 -3 -2 -7 -2 -10c0 -12 9 -21 19 -21h177v-673c0 -17 8 -30 19 -30h117c11 0 20 13 20 30z" />
    <glyph glyph-name="two" unicode="2" horiz-adv-x="608" 
d="M538 -110v118c0 10 -8 19 -18 19h-263l236 280l9 10c35 44 56 99 56 160c0 41 -10 81 -28 116c-42 82 -128 137 -226 137c-132 0 -241 -100 -253 -229v-4c0 -11 8 -20 18 -20h121c9 0 16 7 18 17c8 46 48 80 96 80c54 0 98 -44 98 -97c0 -24 -9 -45 -22 -62l-2 -2
l-323 -383v-1c-3 -3 -5 -8 -5 -13v-125c0 -11 9 -20 20 -20h449c10 0 19 8 19 19z" />
    <glyph glyph-name="three" unicode="3" horiz-adv-x="608" 
d="M501 284c-4 6 -9 11 -14 17c5 5 10 10 14 16c35 44 57 99 57 160c0 39 -10 77 -26 110c-41 85 -128 143 -228 143c-133 0 -241 -101 -253 -230c0 -1 0 -1 -1 -3c0 -11 9 -20 19 -20h120c9 0 17 7 18 17c9 45 49 80 97 80c53 0 97 -44 97 -97c0 -23 -7 -44 -20 -60
c-3 -4 -6 -7 -9 -10l-25 -28h-83c-10 0 -17 -8 -19 -17v-4v-115c0 -11 8 -20 18 -20h84l25 -28c3 -4 6 -7 9 -10c13 -17 20 -38 20 -60c0 -54 -44 -98 -97 -98c-48 0 -88 35 -97 80v1c-2 10 -9 17 -18 17h-119c-10 0 -18 -8 -19 -17v-3c-1 0 -1 0 -1 -1c0 0 1 -1 1 -2
c11 -129 120 -231 253 -231c100 0 187 58 228 143c16 34 26 71 26 111c0 60 -22 116 -57 159z" />
    <glyph glyph-name="four" unicode="4" horiz-adv-x="584" 
d="M490 223h20c13 0 24 -9 24 -20v-117c0 -11 -11 -20 -24 -20h-20v-165c0 -17 -9 -30 -19 -30h-118c-11 0 -19 13 -19 30v165h-285c-10 1 -19 10 -19 21v131c0 1 0 2 1 3c0 2 1 5 2 7v1l294 491l2 2c3 5 9 9 16 9h126c10 0 19 -11 19 -25v-483zM334 223v207l-123 -207h123z
" />
    <glyph glyph-name="five" unicode="5" horiz-adv-x="647" 
d="M597 144c0 144 -112 262 -254 273h-137v157h333c10 0 18 8 19 18v119c-1 10 -10 19 -20 19h-469c-11 0 -19 -9 -19 -21v-428c0 -11 8 -20 18 -20h255c65 0 117 -53 117 -117c0 -65 -52 -117 -117 -117c-58 0 -107 43 -116 99v1c-1 9 -9 16 -18 17h-119
c-11 -1 -19 -10 -19 -21v-2c11 -140 129 -251 272 -251c151 0 274 123 274 274z" />
    <glyph glyph-name="six" unicode="6" horiz-adv-x="608" 
d="M475 699l-157 -321c134 -7 240 -118 240 -254c0 -140 -113 -254 -254 -254c-76 0 -145 34 -192 88c-38 45 -62 103 -62 166c0 41 9 79 24 111l6 12l230 471v1c4 6 10 11 18 11h130c11 0 19 -9 19 -21v-3c0 -2 -1 -3 -1 -5zM304 27c54 0 98 43 98 97s-44 98 -98 98
s-97 -44 -97 -98s43 -97 97 -97z" />
    <glyph glyph-name="seven" unicode="7" horiz-adv-x="600" 
d="M590 578v132c0 11 -10 20 -24 20h-469c-6 0 -12 -3 -15 -8l-2 -3l-67 -113l-1 -2c-2 -3 -2 -6 -2 -10c0 -11 8 -20 18 -20h383l-386 -672l-1 -1c-2 -3 -2 -7 -2 -10c0 -12 8 -21 19 -21h135c6 0 12 4 16 9l1 3l394 684l1 3c2 3 2 6 2 9z" />
    <glyph glyph-name="eight" unicode="8" horiz-adv-x="608" 
d="M558 476c0 -68 -27 -130 -71 -176c44 -46 71 -108 71 -176c0 -140 -114 -254 -254 -254s-254 114 -254 254c0 68 27 130 71 176c-44 46 -71 108 -71 176c0 140 114 254 254 254s254 -114 254 -254zM304 378c54 0 98 44 98 98s-44 98 -98 98s-98 -44 -98 -98
s44 -98 98 -98zM304 27c54 0 98 43 98 97s-44 98 -98 98s-98 -44 -98 -98s44 -97 98 -97z" />
    <glyph glyph-name="nine" unicode="9" horiz-adv-x="608" 
d="M133 -99l157 321c-134 7 -240 118 -240 254c0 140 113 254 254 254c76 0 145 -34 192 -88c38 -45 62 -103 62 -166c0 -41 -9 -79 -24 -111l-6 -12l-230 -471v-1c-4 -6 -10 -11 -18 -11h-130c-11 0 -19 9 -19 21v3c0 2 1 3 1 5zM304 573c-54 0 -98 -43 -98 -97
s44 -98 98 -98s97 44 97 98s-43 97 -97 97z" />
    <glyph glyph-name="backslash" unicode="\" horiz-adv-x="616" 
d="M10 708c0 -2 1 -5 2 -8l1 -3l217 -416l33 -65l174 -333l1 -3c4 -6 10 -9 17 -9h131c11 0 20 9 20 20c0 2 0 5 -1 7l-3 6l-425 816c0 1 0 1 -1 1c-3 5 -9 8 -15 8h-131c-11 0 -20 -9 -20 -21z" />
    <glyph glyph-name="bullet" unicode="&#x2022;" horiz-adv-x="600" 
d="M378 -63c0 44 -35 80 -79 80c-42 0 -77 -36 -77 -80c0 -42 35 -77 77 -77c44 0 79 35 79 77z" />
    <glyph glyph-name="colon" unicode=":" horiz-adv-x="256" 
d="M206 297c0 44 -35 79 -79 79c-42 0 -77 -35 -77 -79c0 -42 35 -77 77 -77c44 0 79 35 79 77zM206 -57c0 44 -35 80 -79 80c-42 0 -77 -36 -77 -80c0 -42 35 -77 77 -77c44 0 79 35 79 77z" />
    <glyph glyph-name="comma" unicode="," horiz-adv-x="205" 
d="M84 -127l-19 -106c92 37 192 233 46 259c-41 8 -82 -20 -90 -62c-7 -42 21 -83 63 -91z" />
    <glyph glyph-name="ellipsis" unicode="&#x2026;" horiz-adv-x="656" 
d="M156 -63c0 44 -35 80 -79 80c-42 0 -77 -36 -77 -80c0 -42 35 -77 77 -77c44 0 79 35 79 77zM406 -63c0 44 -35 80 -79 80c-42 0 -77 -36 -77 -80c0 -42 35 -77 77 -77c44 0 79 35 79 77zM656 -63c0 44 -35 80 -79 80c-42 0 -77 -36 -77 -80c0 -42 35 -77 77 -77
c44 0 79 35 79 77z" />
    <glyph glyph-name="exclam" unicode="!" horiz-adv-x="318" 
d="M100 102h118c11 0 20 11 20 25v589c0 11 -9 20 -20 20h-118c-11 0 -20 -9 -20 -20v-589c0 -14 9 -25 20 -25zM237 -56c0 43 -35 79 -79 79c-42 0 -77 -36 -77 -79c0 -42 35 -76 77 -76c44 0 79 34 79 76z" />
    <glyph glyph-name="period" unicode="." horiz-adv-x="196" 
d="M176 -55c0 44 -35 80 -79 80c-42 0 -77 -36 -77 -80c0 -42 35 -77 77 -77c44 0 79 35 79 77z" />
    <glyph glyph-name="question" unicode="?" horiz-adv-x="600" 
d="M592 470c0 132 -63 197 -115 230c-47 28 -106 43 -177 43c-105 0 -182 -36 -228 -106c-33 -52 -42 -111 -43 -161v-8c0 -10 9 -17 19 -17h117c10 0 18 8 19 18v2c1 28 5 60 19 81c5 9 22 35 97 35c113 0 136 -47 136 -117c0 -27 -6 -58 -55 -79c-39 -17 -81 -18 -81 -18
l-77 1v-252c0 -12 8 -21 19 -21h117c10 0 19 9 19 21v105c18 4 38 10 59 18c100 41 155 121 155 225zM378 -56c0 44 -34 79 -79 79c-42 0 -76 -35 -76 -79c0 -42 34 -76 76 -76c45 0 79 34 79 76z" />
    <glyph glyph-name="quotesingle" unicode="'" horiz-adv-x="205" 
d="M84 592l-19 -106c92 37 192 233 46 259c-41 8 -82 -20 -90 -62c-7 -42 21 -83 63 -91z" />
    <glyph glyph-name="semicolon" unicode=";" horiz-adv-x="205" 
d="M182 297c0 44 -35 79 -79 79c-42 0 -77 -35 -77 -79c0 -42 35 -77 77 -77c44 0 79 35 79 77zM86 -125l-18 -96c84 34 175 211 42 235c-37 7 -74 -18 -81 -56s19 -76 57 -83z" />
    <glyph glyph-name="slash" unicode="/" horiz-adv-x="616" 
d="M606 708c0 12 -9 21 -20 21h-131c-6 0 -12 -3 -15 -8c-1 0 -1 0 -1 -1l-425 -816l-3 -6c-1 -2 -1 -5 -1 -7c0 -11 9 -20 20 -20h131c7 0 13 3 17 9l1 3l174 333l33 65l217 416l1 3c1 3 2 6 2 8z" />
    <glyph glyph-name="underscore" unicode="_" horiz-adv-x="642" 
d="M612 -260v117c0 10 -10 19 -24 19h-539c-10 0 -19 -9 -19 -19v-117c0 -11 9 -19 19 -19h539c14 0 24 8 24 19z" />
    <glyph glyph-name="parenleft" unicode="(" horiz-adv-x="412" 
d="M331 -101c-1 1 -1 2 -2 2c-44 95 -93 238 -93 400c0 160 49 303 94 398c0 1 0 1 1 2c1 3 1 5 1 8c0 11 -9 21 -19 21h-128c-8 0 -15 -5 -18 -12c0 -1 0 -1 -1 -1v-1c-44 -107 -86 -252 -86 -415s42 -308 86 -416c1 -1 1 -3 2 -4c3 -6 9 -10 17 -10h128c10 0 19 9 19 20
c0 3 0 5 -1 8z" />
    <glyph glyph-name="parenright" unicode=")" horiz-adv-x="412" 
d="M81 -101c-1 -3 -1 -5 -1 -8c0 -11 9 -20 19 -20h128c7 0 14 4 17 10c1 1 1 3 2 4c44 108 86 253 86 416s-42 308 -86 415c0 0 -1 0 -1 1v1c-3 7 -10 12 -18 12h-128c-11 0 -19 -10 -19 -21c0 -3 0 -5 1 -8c0 -1 1 -1 1 -2c44 -95 94 -238 94 -398
c0 -162 -49 -305 -94 -400c0 0 0 -1 -1 -2z" />
    <glyph glyph-name="hyphen" unicode="-" horiz-adv-x="462" 
d="M432 182v116c0 11 -10 19 -24 19h-359c-10 0 -19 -8 -19 -19v-116c0 -11 9 -20 19 -20h359c14 0 24 9 24 20z" />
    <glyph glyph-name="guillemotleft" unicode="&#xab;" horiz-adv-x="588" 
d="M206 549c-7 0 -14 -4 -17 -9l-2 -3l-105 -193l-1 -2c-1 -3 -1 -5 -1 -8v-68c0 -1 0 -3 1 -5h1v-2l1 -1l105 -191c4 -6 10 -10 18 -10c4 0 7 1 10 2l70 55l3 2c5 3 9 9 9 16c0 3 -1 6 -3 9l-88 161l89 163s0 1 1 2c1 2 1 5 1 7c0 7 -3 13 -8 16l-4 2l-68 53l-4 3
c-3 1 -5 1 -8 1zM416 549c-7 0 -14 -4 -17 -9l-2 -3l-105 -193l-1 -2c-1 -3 -1 -5 -1 -8v-68c0 -1 0 -3 1 -5h1v-2l1 -1l105 -191c4 -6 10 -10 18 -10c4 0 7 1 10 2l70 55l3 2c5 3 9 9 9 16c0 3 -1 6 -3 9l-88 161l89 163s0 1 1 2c1 2 1 5 1 7c0 7 -3 13 -8 16l-4 2l-68 53
l-4 3c-3 1 -5 1 -8 1z" />
    <glyph glyph-name="guillemotright" unicode="&#xbb;" horiz-adv-x="588" 
d="M172 549c-3 0 -5 0 -8 -1l-4 -3l-68 -53l-4 -2c-5 -3 -8 -9 -8 -16c0 -2 0 -5 1 -7c1 -1 1 -2 1 -2l89 -163l-89 -161c-1 -3 -2 -6 -2 -9c0 -7 4 -13 9 -16l3 -2l70 -55c3 -1 6 -2 10 -2c8 0 14 4 18 10l105 191l1 1v2h1c1 2 1 4 1 5v68c0 3 0 5 -1 8l-1 2l-105 193l-2 3
c-3 5 -10 9 -17 9zM382 549c-3 0 -5 0 -8 -1l-4 -3l-68 -53l-4 -2c-5 -3 -8 -9 -8 -16c0 -2 0 -5 1 -7c1 -1 1 -2 1 -2l89 -163l-89 -161c-1 -3 -2 -6 -2 -9c0 -7 4 -13 9 -16l3 -2l70 -55c3 -1 6 -2 10 -2c8 0 14 4 18 10l105 191l1 1v2h1c1 2 1 4 1 5v68c0 3 0 5 -1 8
l-1 2l-105 193l-2 3c-3 5 -10 9 -17 9z" />
    <glyph glyph-name="guilsinglleft" unicode="&#x2039;" horiz-adv-x="378" 
d="M206 549c-7 0 -14 -4 -17 -9l-2 -3l-105 -193l-1 -2c-1 -3 -1 -5 -1 -8v-68c0 -1 0 -3 1 -5h1v-2l1 -1l105 -191c4 -6 10 -10 18 -10c4 0 7 1 10 2l70 55l3 2c5 3 9 9 9 16c0 3 -1 6 -3 9l-88 161l89 163s0 1 1 2c1 2 1 5 1 7c0 7 -3 13 -8 16l-4 2l-68 53l-4 3
c-3 1 -5 1 -8 1z" />
    <glyph glyph-name="guilsinglright" unicode="&#x203a;" horiz-adv-x="378" 
d="M172 549c-3 0 -5 0 -8 -1l-4 -3l-68 -53l-4 -2c-5 -3 -8 -9 -8 -16c0 -2 0 -5 1 -7c1 -1 1 -2 1 -2l89 -163l-89 -161c-1 -3 -2 -6 -2 -9c0 -7 4 -13 9 -16l3 -2l70 -55c3 -1 6 -2 10 -2c8 0 14 4 18 10l105 191l1 1v2h1c1 2 1 4 1 5v68c0 3 0 5 -1 8l-1 2l-105 193l-2 3
c-3 5 -10 9 -17 9z" />
    <glyph glyph-name="quotedblbase" unicode="&#x201e;" horiz-adv-x="205" 
d="M111 26c146 -26 46 -222 -46 -259l19 106c-42 8 -70 49 -63 91c8 42 49 70 90 62z" />
    <glyph glyph-name="quotesinglbase" unicode="&#x201a;" horiz-adv-x="600" 
d="M84 -127l-19 -106c92 37 192 233 46 259c-41 8 -82 -20 -90 -62c-7 -42 21 -83 63 -91z" />
    <glyph glyph-name="space" unicode=" " horiz-adv-x="450" 
 />
    <glyph glyph-name="equal" unicode="=" horiz-adv-x="667" 
d="M627 224v118c0 10 -11 19 -24 19h-543c-11 0 -20 -9 -20 -19v-118c0 -11 9 -19 20 -19h543c13 0 24 8 24 19zM627 -10v117c0 11 -11 19 -24 19h-543c-11 0 -20 -8 -20 -19v-117c0 -11 9 -20 20 -20h543c13 0 24 9 24 20z" />
    <glyph glyph-name="minus" unicode="&#x2212;" horiz-adv-x="667" 
d="M627 104v118c0 11 -11 19 -24 19h-543c-11 0 -20 -8 -20 -19v-118c0 -10 9 -19 20 -19h543c13 0 24 9 24 19z" />
    <glyph glyph-name="plus" unicode="+" horiz-adv-x="665" 
d="M411 241h190c13 0 24 -9 24 -19v-117c0 -11 -11 -20 -24 -20h-190v-190c0 -14 -9 -24 -20 -24h-117c-11 0 -19 10 -19 24v190h-195c-11 0 -20 9 -20 20v117c0 10 9 19 20 19h195v195c0 11 8 20 19 20h117c11 0 20 -9 20 -20v-195z" />
    <glyph glyph-name="asciicircum" unicode="^" horiz-adv-x="600" 
d="M546 895c0 7 -4 14 -9 17l-3 2l-193 105l-2 1c-3 1 -5 1 -8 1h-68c-1 0 -3 0 -5 -1v-1h-2l-1 -1l-191 -105c-6 -4 -10 -10 -10 -18c0 -4 1 -7 2 -10l55 -70l2 -3c3 -5 9 -9 16 -9c3 0 6 1 9 3l161 88l163 -89s1 0 2 -1c2 -1 5 -1 7 -1c7 0 13 3 16 8l2 4l53 68l3 4
c1 3 1 5 1 8z" />
    <glyph glyph-name="at" unicode="@" horiz-adv-x="994" 
d="M496 -8h418c11 -1 20 -10 20 -22v-77c0 -13 -9 -22 -21 -22h-417c-117 0 -226 43 -307 122c-83 80 -129 187 -129 304c0 240 196 435 436 435c119 0 228 -40 306 -113c84 -79 129 -190 129 -322c0 -12 0 -51 -13 -92c-16 -55 -69 -119 -167 -119c-67 0 -132 9 -135 10
l-51 7v17c-26 -12 -54 -18 -83 -18c-108 0 -195 87 -195 195c0 107 87 195 195 195c29 0 57 -7 83 -19v11c0 11 9 21 20 22h81c11 -1 20 -11 20 -22v-274c20 -2 42 -3 65 -3c37 0 48 22 51 32c8 27 8 54 8 57v1c0 190 -124 314 -314 314c-173 0 -314 -141 -314 -314
c0 -171 138 -305 314 -305zM482 204c36 0 68 21 83 52c6 12 9 26 9 41c0 14 -3 28 -9 40c-15 31 -47 52 -83 52c-51 0 -93 -41 -93 -92s42 -93 93 -93z" />
    <glyph glyph-name="trademark" unicode="&#x2122;" horiz-adv-x="1450" 
d="M621 594v117c0 11 -11 19 -24 19h-542c-11 0 -20 -8 -20 -19v-117c0 -11 9 -20 20 -20h195v-679c0 -13 9 -24 19 -24h118c10 0 19 11 19 24v679h191c13 0 24 9 24 20zM726 729v-839c0 -11 9 -20 19 -20h116c11 0 19 9 19 20v468l173 -173l173 173v-468
c0 -11 9 -20 20 -20h115c11 0 19 9 19 20v839l-327 -327z" />
    </font>
</defs>
</svg>
